<mxfile host="app.diagrams.net" modified="2023-06-04T16:22:42.250Z" agent="Mozilla/5.0 (Windows NT 10.0; Win64; x64) AppleWebKit/537.36 (KHTML, like Gecko) Chrome/114.0.0.0 Safari/537.36" etag="oxXmvP0i5-5_6S05dyEO" version="21.3.2" type="device">
  <diagram name="Page-1" id="TkGZkNZmSqTiJwBVCwr1">
    <mxGraphModel dx="500" dy="295" grid="1" gridSize="1" guides="1" tooltips="1" connect="1" arrows="1" fold="1" page="1" pageScale="1" pageWidth="850" pageHeight="1100" math="0" shadow="0">
      <root>
        <mxCell id="0" />
        <mxCell id="1" parent="0" />
        <mxCell id="IJUnEu4IIrQYRRW8pyYo-12" value="" style="rounded=0;whiteSpace=wrap;html=1;shadow=0;fillColor=#d0cee2;strokeColor=#56517e;" vertex="1" parent="1">
          <mxGeometry x="130" y="130" width="420" height="340" as="geometry" />
        </mxCell>
        <mxCell id="IJUnEu4IIrQYRRW8pyYo-7" value="connector J6" style="edgeStyle=orthogonalEdgeStyle;rounded=0;orthogonalLoop=1;jettySize=auto;html=1;startArrow=classic;startFill=1;" edge="1" parent="1" source="IJUnEu4IIrQYRRW8pyYo-1" target="IJUnEu4IIrQYRRW8pyYo-5">
          <mxGeometry y="-10" relative="1" as="geometry">
            <mxPoint as="offset" />
          </mxGeometry>
        </mxCell>
        <mxCell id="IJUnEu4IIrQYRRW8pyYo-1" value="Motor Kanan" style="rounded=0;whiteSpace=wrap;html=1;fillColor=#e3c800;fontColor=#000000;strokeColor=#B09500;" vertex="1" parent="1">
          <mxGeometry x="480" y="290" width="50" height="60" as="geometry" />
        </mxCell>
        <mxCell id="IJUnEu4IIrQYRRW8pyYo-6" value="connector J5" style="edgeStyle=orthogonalEdgeStyle;rounded=0;orthogonalLoop=1;jettySize=auto;html=1;startArrow=classic;startFill=1;" edge="1" parent="1" source="IJUnEu4IIrQYRRW8pyYo-2" target="IJUnEu4IIrQYRRW8pyYo-5">
          <mxGeometry y="10" relative="1" as="geometry">
            <mxPoint as="offset" />
          </mxGeometry>
        </mxCell>
        <mxCell id="IJUnEu4IIrQYRRW8pyYo-2" value="&amp;nbsp;Motor Kiri" style="rounded=0;whiteSpace=wrap;html=1;fillColor=#e3c800;fontColor=#000000;strokeColor=#B09500;" vertex="1" parent="1">
          <mxGeometry x="150" y="290" width="50" height="60" as="geometry" />
        </mxCell>
        <mxCell id="IJUnEu4IIrQYRRW8pyYo-10" value="Connector&amp;nbsp; I2C" style="edgeStyle=orthogonalEdgeStyle;rounded=0;orthogonalLoop=1;jettySize=auto;html=1;startArrow=classic;startFill=1;" edge="1" parent="1" source="IJUnEu4IIrQYRRW8pyYo-5" target="IJUnEu4IIrQYRRW8pyYo-9">
          <mxGeometry x="-0.2" relative="1" as="geometry">
            <mxPoint as="offset" />
          </mxGeometry>
        </mxCell>
        <mxCell id="IJUnEu4IIrQYRRW8pyYo-19" value="power" style="edgeStyle=orthogonalEdgeStyle;rounded=0;orthogonalLoop=1;jettySize=auto;html=1;exitX=1;exitY=0.25;exitDx=0;exitDy=0;entryX=0.5;entryY=1;entryDx=0;entryDy=0;" edge="1" parent="1" source="IJUnEu4IIrQYRRW8pyYo-5" target="IJUnEu4IIrQYRRW8pyYo-18">
          <mxGeometry x="0.4286" y="-20" relative="1" as="geometry">
            <mxPoint as="offset" />
          </mxGeometry>
        </mxCell>
        <mxCell id="IJUnEu4IIrQYRRW8pyYo-5" value="PCB" style="rounded=0;whiteSpace=wrap;html=1;fillColor=#008a00;fontColor=#ffffff;strokeColor=#005700;" vertex="1" parent="1">
          <mxGeometry x="280" y="260" width="120" height="120" as="geometry" />
        </mxCell>
        <mxCell id="IJUnEu4IIrQYRRW8pyYo-9" value="OLED Display" style="rounded=0;whiteSpace=wrap;html=1;fillColor=#0050ef;fontColor=#ffffff;strokeColor=#001DBC;" vertex="1" parent="1">
          <mxGeometry x="280" y="150" width="120" height="60" as="geometry" />
        </mxCell>
        <mxCell id="IJUnEu4IIrQYRRW8pyYo-13" value="&lt;b&gt;Schematic diluar PCB&lt;/b&gt;" style="text;html=1;strokeColor=none;fillColor=none;align=center;verticalAlign=middle;whiteSpace=wrap;rounded=0;" vertex="1" parent="1">
          <mxGeometry x="130" y="140" width="90" height="30" as="geometry" />
        </mxCell>
        <mxCell id="IJUnEu4IIrQYRRW8pyYo-17" value="Connector Baterai" style="edgeStyle=orthogonalEdgeStyle;rounded=0;orthogonalLoop=1;jettySize=auto;html=1;exitX=1;exitY=0.5;exitDx=0;exitDy=0;entryX=0.5;entryY=1;entryDx=0;entryDy=0;" edge="1" parent="1" source="IJUnEu4IIrQYRRW8pyYo-15" target="IJUnEu4IIrQYRRW8pyYo-5">
          <mxGeometry y="-10" relative="1" as="geometry">
            <mxPoint as="offset" />
          </mxGeometry>
        </mxCell>
        <mxCell id="IJUnEu4IIrQYRRW8pyYo-15" value="Baterai" style="rounded=1;whiteSpace=wrap;html=1;fillColor=#e51400;fontColor=#ffffff;strokeColor=#B20000;" vertex="1" parent="1">
          <mxGeometry x="180" y="390" width="100" height="60" as="geometry" />
        </mxCell>
        <mxCell id="IJUnEu4IIrQYRRW8pyYo-18" value="ESP32 CAM" style="rounded=0;whiteSpace=wrap;html=1;fillColor=#647687;fontColor=#ffffff;strokeColor=#314354;" vertex="1" parent="1">
          <mxGeometry x="430" y="150" width="60" height="60" as="geometry" />
        </mxCell>
        <mxCell id="IJUnEu4IIrQYRRW8pyYo-20" value="" style="rounded=0;whiteSpace=wrap;html=1;fillColor=#ffe6cc;strokeColor=#d79b00;" vertex="1" parent="1">
          <mxGeometry x="130" y="512" width="420" height="320" as="geometry" />
        </mxCell>
        <mxCell id="IJUnEu4IIrQYRRW8pyYo-21" value="&lt;b&gt;Signal Diagram&lt;/b&gt;" style="text;html=1;strokeColor=none;fillColor=none;align=center;verticalAlign=middle;whiteSpace=wrap;rounded=0;" vertex="1" parent="1">
          <mxGeometry x="130" y="510" width="110" height="30" as="geometry" />
        </mxCell>
        <mxCell id="IJUnEu4IIrQYRRW8pyYo-27" value="" style="edgeStyle=orthogonalEdgeStyle;rounded=0;orthogonalLoop=1;jettySize=auto;html=1;" edge="1" parent="1" source="IJUnEu4IIrQYRRW8pyYo-24">
          <mxGeometry relative="1" as="geometry">
            <mxPoint x="375" y="665" as="targetPoint" />
            <Array as="points">
              <mxPoint x="390" y="665" />
              <mxPoint x="390" y="665" />
            </Array>
          </mxGeometry>
        </mxCell>
        <mxCell id="IJUnEu4IIrQYRRW8pyYo-24" value="&lt;font style=&quot;font-size: 8px;&quot;&gt;encoder motor kanan&lt;/font&gt;" style="rounded=0;whiteSpace=wrap;html=1;fillColor=#fff2cc;gradientColor=#ffd966;strokeColor=#d6b656;" vertex="1" parent="1">
          <mxGeometry x="430" y="650" width="50" height="30" as="geometry" />
        </mxCell>
        <mxCell id="IJUnEu4IIrQYRRW8pyYo-26" value="" style="edgeStyle=orthogonalEdgeStyle;rounded=0;orthogonalLoop=1;jettySize=auto;html=1;" edge="1" parent="1" source="IJUnEu4IIrQYRRW8pyYo-25" target="IJUnEu4IIrQYRRW8pyYo-22">
          <mxGeometry relative="1" as="geometry">
            <Array as="points">
              <mxPoint x="390" y="625" />
              <mxPoint x="390" y="625" />
            </Array>
          </mxGeometry>
        </mxCell>
        <mxCell id="IJUnEu4IIrQYRRW8pyYo-25" value="&lt;font style=&quot;font-size: 8px;&quot;&gt;encoder&lt;br&gt;motor kiri&lt;/font&gt;" style="rounded=0;whiteSpace=wrap;html=1;fillColor=#fff2cc;gradientColor=#ffd966;strokeColor=#d6b656;" vertex="1" parent="1">
          <mxGeometry x="430" y="610" width="50" height="30" as="geometry" />
        </mxCell>
        <mxCell id="IJUnEu4IIrQYRRW8pyYo-28" value="&lt;font style=&quot;font-size: 8px;&quot;&gt;OLED DISPLAY&lt;/font&gt;" style="rounded=0;whiteSpace=wrap;html=1;" vertex="1" parent="1">
          <mxGeometry x="190" y="560" width="50" height="40" as="geometry" />
        </mxCell>
        <mxCell id="IJUnEu4IIrQYRRW8pyYo-29" value="" style="endArrow=classic;startArrow=classic;html=1;rounded=0;" edge="1" parent="1" source="IJUnEu4IIrQYRRW8pyYo-22">
          <mxGeometry width="50" height="50" relative="1" as="geometry">
            <mxPoint x="290" y="680" as="sourcePoint" />
            <mxPoint x="340" y="630" as="targetPoint" />
          </mxGeometry>
        </mxCell>
        <mxCell id="IJUnEu4IIrQYRRW8pyYo-22" value="ESP32&lt;br&gt;wroom-32D" style="rounded=0;whiteSpace=wrap;html=1;" vertex="1" parent="1">
          <mxGeometry x="305" y="540" width="70" height="250" as="geometry" />
        </mxCell>
        <mxCell id="IJUnEu4IIrQYRRW8pyYo-34" value="" style="endArrow=none;html=1;rounded=0;entryX=0.012;entryY=0.08;entryDx=0;entryDy=0;entryPerimeter=0;fillColor=#0050ef;strokeColor=#001DBC;" edge="1" parent="1" target="IJUnEu4IIrQYRRW8pyYo-22">
          <mxGeometry width="50" height="50" relative="1" as="geometry">
            <mxPoint x="260" y="560" as="sourcePoint" />
            <mxPoint x="310" y="640" as="targetPoint" />
          </mxGeometry>
        </mxCell>
        <mxCell id="IJUnEu4IIrQYRRW8pyYo-35" value="" style="endArrow=none;html=1;rounded=0;entryX=0.31;entryY=0.344;entryDx=0;entryDy=0;entryPerimeter=0;fillColor=#0050ef;strokeColor=#001DBC;" edge="1" parent="1" target="IJUnEu4IIrQYRRW8pyYo-20">
          <mxGeometry width="50" height="50" relative="1" as="geometry">
            <mxPoint x="260" y="560" as="sourcePoint" />
            <mxPoint x="317" y="574" as="targetPoint" />
          </mxGeometry>
        </mxCell>
        <mxCell id="IJUnEu4IIrQYRRW8pyYo-36" value="" style="endArrow=none;html=1;rounded=0;entryX=-0.001;entryY=0.119;entryDx=0;entryDy=0;entryPerimeter=0;fillColor=#ffff88;strokeColor=#FF8000;" edge="1" parent="1" target="IJUnEu4IIrQYRRW8pyYo-22">
          <mxGeometry width="50" height="50" relative="1" as="geometry">
            <mxPoint x="270" y="570" as="sourcePoint" />
            <mxPoint x="316" y="570" as="targetPoint" />
          </mxGeometry>
        </mxCell>
        <mxCell id="IJUnEu4IIrQYRRW8pyYo-37" value="" style="endArrow=none;html=1;rounded=0;entryX=0.31;entryY=0.344;entryDx=0;entryDy=0;entryPerimeter=0;fillColor=#ffff88;strokeColor=#FF8000;" edge="1" parent="1">
          <mxGeometry width="50" height="50" relative="1" as="geometry">
            <mxPoint x="270" y="570" as="sourcePoint" />
            <mxPoint x="270" y="650" as="targetPoint" />
          </mxGeometry>
        </mxCell>
        <mxCell id="IJUnEu4IIrQYRRW8pyYo-38" value="&lt;font style=&quot;font-size: 7px;&quot;&gt;SDA&lt;/font&gt;" style="text;html=1;strokeColor=none;fillColor=none;align=center;verticalAlign=middle;whiteSpace=wrap;rounded=0;" vertex="1" parent="1">
          <mxGeometry x="300" y="553" width="30" height="10" as="geometry" />
        </mxCell>
        <mxCell id="IJUnEu4IIrQYRRW8pyYo-41" value="&lt;font style=&quot;font-size: 7px;&quot;&gt;SCL&lt;/font&gt;" style="text;html=1;strokeColor=none;fillColor=none;align=center;verticalAlign=middle;whiteSpace=wrap;rounded=0;" vertex="1" parent="1">
          <mxGeometry x="300" y="562" width="30" height="10" as="geometry" />
        </mxCell>
        <mxCell id="IJUnEu4IIrQYRRW8pyYo-43" value="" style="endArrow=none;html=1;rounded=0;fillColor=#0050ef;strokeColor=#001DBC;exitX=1;exitY=0.25;exitDx=0;exitDy=0;" edge="1" parent="1" source="IJUnEu4IIrQYRRW8pyYo-28">
          <mxGeometry width="50" height="50" relative="1" as="geometry">
            <mxPoint x="261" y="561" as="sourcePoint" />
            <mxPoint x="260" y="570" as="targetPoint" />
          </mxGeometry>
        </mxCell>
        <mxCell id="IJUnEu4IIrQYRRW8pyYo-44" value="" style="endArrow=none;html=1;rounded=0;fillColor=#ffff88;strokeColor=#FF8000;exitX=1;exitY=0.5;exitDx=0;exitDy=0;" edge="1" parent="1" source="IJUnEu4IIrQYRRW8pyYo-28">
          <mxGeometry width="50" height="50" relative="1" as="geometry">
            <mxPoint x="271" y="571" as="sourcePoint" />
            <mxPoint x="271" y="580" as="targetPoint" />
          </mxGeometry>
        </mxCell>
        <mxCell id="IJUnEu4IIrQYRRW8pyYo-45" value="&lt;font style=&quot;font-size: 8px;&quot;&gt;GYRO&lt;br&gt;MPU6050&lt;/font&gt;" style="rounded=0;whiteSpace=wrap;html=1;" vertex="1" parent="1">
          <mxGeometry x="197" y="613" width="43" height="31" as="geometry" />
        </mxCell>
        <mxCell id="IJUnEu4IIrQYRRW8pyYo-46" value="" style="endArrow=none;html=1;rounded=0;fillColor=#0050ef;strokeColor=#001DBC;exitX=1;exitY=0.25;exitDx=0;exitDy=0;" edge="1" parent="1">
          <mxGeometry width="50" height="50" relative="1" as="geometry">
            <mxPoint x="240" y="620" as="sourcePoint" />
            <mxPoint x="260" y="620" as="targetPoint" />
          </mxGeometry>
        </mxCell>
        <mxCell id="IJUnEu4IIrQYRRW8pyYo-47" value="" style="endArrow=none;html=1;rounded=0;fillColor=#ffff88;strokeColor=#FF8000;exitX=1;exitY=0.5;exitDx=0;exitDy=0;" edge="1" parent="1">
          <mxGeometry width="50" height="50" relative="1" as="geometry">
            <mxPoint x="239" y="634" as="sourcePoint" />
            <mxPoint x="270" y="634" as="targetPoint" />
          </mxGeometry>
        </mxCell>
      </root>
    </mxGraphModel>
  </diagram>
</mxfile>
